<mxfile host="app.diagrams.net" modified="2022-03-19T07:48:56.265Z" agent="5.0 (Windows NT 10.0; Win64; x64) AppleWebKit/537.36 (KHTML, like Gecko) Chrome/99.0.4844.51 Safari/537.36 Edg/99.0.1150.39" etag="zWwEzvCYOyVkBNqzDkRe" version="17.1.3" type="github">
  <diagram id="C5RBs43oDa-KdzZeNtuy" name="Page-1">
    <mxGraphModel dx="1007" dy="641" grid="1" gridSize="10" guides="1" tooltips="1" connect="1" arrows="1" fold="1" page="1" pageScale="1" pageWidth="827" pageHeight="1169" math="0" shadow="0">
      <root>
        <mxCell id="WIyWlLk6GJQsqaUBKTNV-0" />
        <mxCell id="WIyWlLk6GJQsqaUBKTNV-1" parent="WIyWlLk6GJQsqaUBKTNV-0" />
        <mxCell id="QBWDQowgzJU6ghLLT7JN-0" value="" style="edgeStyle=orthogonalEdgeStyle;rounded=0;orthogonalLoop=1;jettySize=auto;html=1;entryX=0.5;entryY=0;entryDx=0;entryDy=0;" edge="1" parent="WIyWlLk6GJQsqaUBKTNV-1" source="QBWDQowgzJU6ghLLT7JN-1" target="QBWDQowgzJU6ghLLT7JN-7">
          <mxGeometry relative="1" as="geometry">
            <mxPoint x="317" y="120" as="targetPoint" />
          </mxGeometry>
        </mxCell>
        <mxCell id="QBWDQowgzJU6ghLLT7JN-1" value="开始" style="ellipse;whiteSpace=wrap;html=1;" vertex="1" parent="WIyWlLk6GJQsqaUBKTNV-1">
          <mxGeometry x="278" y="60" width="78" height="43" as="geometry" />
        </mxCell>
        <mxCell id="QBWDQowgzJU6ghLLT7JN-6" value="" style="edgeStyle=orthogonalEdgeStyle;rounded=0;orthogonalLoop=1;jettySize=auto;html=1;entryX=0.5;entryY=0;entryDx=0;entryDy=0;" edge="1" parent="WIyWlLk6GJQsqaUBKTNV-1" source="QBWDQowgzJU6ghLLT7JN-7" target="QBWDQowgzJU6ghLLT7JN-28">
          <mxGeometry relative="1" as="geometry">
            <mxPoint x="318" y="170" as="targetPoint" />
          </mxGeometry>
        </mxCell>
        <mxCell id="QBWDQowgzJU6ghLLT7JN-7" value="业务需求输入" style="rounded=1;whiteSpace=wrap;html=1;fontSize=12;glass=0;strokeWidth=1;shadow=0;" vertex="1" parent="WIyWlLk6GJQsqaUBKTNV-1">
          <mxGeometry x="266" y="130" width="104" height="40" as="geometry" />
        </mxCell>
        <mxCell id="QBWDQowgzJU6ghLLT7JN-15" value="" style="edgeStyle=orthogonalEdgeStyle;rounded=0;orthogonalLoop=1;jettySize=auto;html=1;" edge="1" parent="WIyWlLk6GJQsqaUBKTNV-1" source="QBWDQowgzJU6ghLLT7JN-16" target="QBWDQowgzJU6ghLLT7JN-19">
          <mxGeometry relative="1" as="geometry" />
        </mxCell>
        <mxCell id="QBWDQowgzJU6ghLLT7JN-16" value="创建攻击链聚合任务" style="rounded=1;whiteSpace=wrap;html=1;fontSize=12;glass=0;strokeWidth=1;shadow=0;" vertex="1" parent="WIyWlLk6GJQsqaUBKTNV-1">
          <mxGeometry x="266" y="349" width="104" height="40" as="geometry" />
        </mxCell>
        <mxCell id="QBWDQowgzJU6ghLLT7JN-17" value="结束" style="ellipse;whiteSpace=wrap;html=1;" vertex="1" parent="WIyWlLk6GJQsqaUBKTNV-1">
          <mxGeometry x="278" y="659" width="78" height="43" as="geometry" />
        </mxCell>
        <mxCell id="QBWDQowgzJU6ghLLT7JN-18" value="" style="edgeStyle=orthogonalEdgeStyle;rounded=0;orthogonalLoop=1;jettySize=auto;html=1;" edge="1" parent="WIyWlLk6GJQsqaUBKTNV-1" source="QBWDQowgzJU6ghLLT7JN-19" target="QBWDQowgzJU6ghLLT7JN-22">
          <mxGeometry relative="1" as="geometry" />
        </mxCell>
        <mxCell id="QBWDQowgzJU6ghLLT7JN-19" value="执行攻击链聚合任务" style="rounded=1;whiteSpace=wrap;html=1;fontSize=12;glass=0;strokeWidth=1;shadow=0;" vertex="1" parent="WIyWlLk6GJQsqaUBKTNV-1">
          <mxGeometry x="266" y="419" width="104" height="40" as="geometry" />
        </mxCell>
        <mxCell id="QBWDQowgzJU6ghLLT7JN-20" value="" style="edgeStyle=orthogonalEdgeStyle;rounded=0;orthogonalLoop=1;jettySize=auto;html=1;" edge="1" parent="WIyWlLk6GJQsqaUBKTNV-1" source="QBWDQowgzJU6ghLLT7JN-22" target="QBWDQowgzJU6ghLLT7JN-24">
          <mxGeometry relative="1" as="geometry" />
        </mxCell>
        <mxCell id="QBWDQowgzJU6ghLLT7JN-21" style="edgeStyle=orthogonalEdgeStyle;rounded=0;orthogonalLoop=1;jettySize=auto;html=1;exitX=1;exitY=0.5;exitDx=0;exitDy=0;entryX=1;entryY=0.5;entryDx=0;entryDy=0;" edge="1" parent="WIyWlLk6GJQsqaUBKTNV-1" source="QBWDQowgzJU6ghLLT7JN-22" target="QBWDQowgzJU6ghLLT7JN-28">
          <mxGeometry relative="1" as="geometry">
            <mxPoint x="529" y="132.5764797044837" as="targetPoint" />
            <Array as="points">
              <mxPoint x="470" y="529" />
              <mxPoint x="470" y="220" />
            </Array>
          </mxGeometry>
        </mxCell>
        <mxCell id="QBWDQowgzJU6ghLLT7JN-22" value="规则运行结果符合预期？" style="rhombus;whiteSpace=wrap;html=1;" vertex="1" parent="WIyWlLk6GJQsqaUBKTNV-1">
          <mxGeometry x="278" y="489" width="80" height="80" as="geometry" />
        </mxCell>
        <mxCell id="QBWDQowgzJU6ghLLT7JN-23" value="" style="edgeStyle=orthogonalEdgeStyle;rounded=0;orthogonalLoop=1;jettySize=auto;html=1;" edge="1" parent="WIyWlLk6GJQsqaUBKTNV-1" source="QBWDQowgzJU6ghLLT7JN-24" target="QBWDQowgzJU6ghLLT7JN-17">
          <mxGeometry relative="1" as="geometry" />
        </mxCell>
        <mxCell id="QBWDQowgzJU6ghLLT7JN-24" value="启用规则" style="rounded=1;whiteSpace=wrap;html=1;fontSize=12;glass=0;strokeWidth=1;shadow=0;" vertex="1" parent="WIyWlLk6GJQsqaUBKTNV-1">
          <mxGeometry x="266" y="599" width="104" height="40" as="geometry" />
        </mxCell>
        <mxCell id="QBWDQowgzJU6ghLLT7JN-25" value="Yes" style="text;html=1;align=center;verticalAlign=middle;resizable=0;points=[];autosize=1;strokeColor=none;fillColor=none;" vertex="1" parent="WIyWlLk6GJQsqaUBKTNV-1">
          <mxGeometry x="319" y="569" width="30" height="20" as="geometry" />
        </mxCell>
        <mxCell id="QBWDQowgzJU6ghLLT7JN-26" value="No" style="text;html=1;align=center;verticalAlign=middle;resizable=0;points=[];autosize=1;strokeColor=none;fillColor=none;" vertex="1" parent="WIyWlLk6GJQsqaUBKTNV-1">
          <mxGeometry x="364" y="509" width="30" height="20" as="geometry" />
        </mxCell>
        <mxCell id="QBWDQowgzJU6ghLLT7JN-27" value="" style="edgeStyle=orthogonalEdgeStyle;rounded=0;orthogonalLoop=1;jettySize=auto;html=1;" edge="1" parent="WIyWlLk6GJQsqaUBKTNV-1" source="QBWDQowgzJU6ghLLT7JN-28" target="QBWDQowgzJU6ghLLT7JN-29">
          <mxGeometry relative="1" as="geometry" />
        </mxCell>
        <mxCell id="QBWDQowgzJU6ghLLT7JN-28" value="创建攻击链聚合规则" style="rounded=1;whiteSpace=wrap;html=1;fontSize=12;glass=0;strokeWidth=1;shadow=0;" vertex="1" parent="WIyWlLk6GJQsqaUBKTNV-1">
          <mxGeometry x="266" y="200" width="104" height="40" as="geometry" />
        </mxCell>
        <mxCell id="QBWDQowgzJU6ghLLT7JN-32" value="" style="edgeStyle=orthogonalEdgeStyle;rounded=0;orthogonalLoop=1;jettySize=auto;html=1;" edge="1" parent="WIyWlLk6GJQsqaUBKTNV-1" source="QBWDQowgzJU6ghLLT7JN-29" target="QBWDQowgzJU6ghLLT7JN-16">
          <mxGeometry relative="1" as="geometry">
            <mxPoint x="318.0588235294117" y="350.0588235294117" as="targetPoint" />
          </mxGeometry>
        </mxCell>
        <mxCell id="QBWDQowgzJU6ghLLT7JN-29" value="规则配置" style="rounded=1;whiteSpace=wrap;html=1;fontSize=12;glass=0;strokeWidth=1;shadow=0;" vertex="1" parent="WIyWlLk6GJQsqaUBKTNV-1">
          <mxGeometry x="266" y="280" width="104" height="40" as="geometry" />
        </mxCell>
      </root>
    </mxGraphModel>
  </diagram>
</mxfile>
